<svg width="149" height="24" viewBox="0 0 149 24" fill="none" xmlns="http://www.w3.org/2000/svg">
<path fill-rule="evenodd" clip-rule="evenodd" d="M9.16492 21.843C9.16492 20.6559 10.2802 17.0352 11.659 17.0352C13.0379 17.0352 14.1531 20.6559 14.1531 21.843C14.1531 23.0301 13.0379 23.9997 11.659 23.9997C10.2599 24.0195 9.16492 23.05 9.16492 21.843Z" fill="#0064A9"/>
<path fill-rule="evenodd" clip-rule="evenodd" d="M11.6584 0.692627C9.63067 0.692627 8.00848 2.25568 8.00848 4.19466C8.00848 6.11385 9.65099 12.3859 11.6584 12.3859C13.6659 12.3859 15.3083 6.11385 15.3083 4.19466C15.3083 2.25568 13.6659 0.692627 11.6584 0.692627Z" fill="#0064A9"/>
<path fill-rule="evenodd" clip-rule="evenodd" d="M1.68207 12.8207C3.26371 13.6714 8.71832 14.9773 9.59023 13.434C10.4622 11.9105 6.38644 8.11171 4.80481 7.26094C3.24343 6.42995 1.27651 6.98393 0.404583 8.50739C-0.467341 10.0507 0.120703 11.9699 1.68207 12.8207Z" fill="#0064A9"/>
<path fill-rule="evenodd" clip-rule="evenodd" d="M22.9133 8.64661C22.0414 7.12314 20.0745 6.54936 18.4929 7.40015C16.9112 8.23114 12.8557 12.03 13.7073 13.5534C14.5793 15.0769 20.0542 13.7908 21.6156 12.9401C23.1973 12.1091 23.7649 10.1701 22.9133 8.64661Z" fill="#0064A9"/>
<path fill-rule="evenodd" clip-rule="evenodd" d="M3.7696 18.5986C4.23599 19.5681 5.43234 19.9835 6.42594 19.5088C7.41952 19.0537 10.0556 16.8575 9.58925 15.9078C9.12282 14.9383 5.71624 15.5516 4.72264 16.0067C3.72904 16.4816 3.30322 17.6291 3.7696 18.5986Z" fill="#0064A9"/>
<path fill-rule="evenodd" clip-rule="evenodd" d="M18.5731 16.0067C17.5794 15.5516 14.1729 14.9383 13.6861 15.9078C13.2198 16.8773 15.856 19.0537 16.8495 19.5088C17.8431 19.9835 19.0395 19.5681 19.5058 18.5986C19.9925 17.6291 19.5667 16.4816 18.5731 16.0067Z" fill="#0064A9"/>
<path d="M34.1742 7.21459C35.221 7.21459 36.012 7.41671 36.5468 7.82094C37.0816 8.22025 37.349 8.8192 37.349 9.61781C37.349 10.3573 37.1593 10.9685 36.7799 11.4516C36.4004 11.9298 35.8611 12.2478 35.1616 12.4055V12.4499C35.6187 12.5781 35.9822 12.8171 36.2519 13.1672C36.5261 13.5123 36.6633 13.956 36.6633 14.4982C36.6633 15.6271 36.3136 16.4971 35.6142 17.1084C34.9148 17.7197 33.9479 18.0254 32.7138 18.0254H29.1344L31.2532 7.21459H34.1742ZM32.508 11.496H33.5297C34.0828 11.496 34.4965 11.3777 34.7708 11.1411C35.0496 10.8995 35.189 10.5544 35.189 10.1058C35.189 9.43048 34.8005 9.0928 34.0234 9.0928H32.9812L32.508 11.496ZM31.596 16.1324H32.8303C33.3651 16.1324 33.7834 15.9894 34.0852 15.7035C34.3914 15.4176 34.5446 15.0207 34.5446 14.5129C34.5446 13.7143 34.1263 13.3151 33.2897 13.3151H32.1584L31.596 16.1324ZM40.2632 18.1732C39.5912 18.1732 39.061 17.912 38.6724 17.3894C38.2884 16.862 38.0964 16.125 38.0964 15.1785C38.0964 14.2024 38.2609 13.2732 38.5901 12.3908C38.9193 11.5034 39.3513 10.8182 39.8861 10.3351C40.4209 9.84703 41.0083 9.60302 41.6483 9.60302C42.0917 9.60302 42.4734 9.70654 42.7934 9.91359C43.118 10.1206 43.3694 10.4213 43.5476 10.8157H43.6025L43.9934 9.7583H45.5842L43.9523 18.0254H42.382L42.4779 16.9532H42.4506C41.838 17.7665 41.1089 18.1732 40.2632 18.1732ZM41.0723 16.3764C41.3877 16.3764 41.6917 16.2112 41.9843 15.881C42.2768 15.5506 42.5122 15.1045 42.6906 14.5426C42.8688 13.9757 42.958 13.3347 42.958 12.62C42.958 12.27 42.8688 11.9816 42.6906 11.7548C42.5169 11.5231 42.286 11.4073 41.998 11.4073C41.6871 11.4073 41.39 11.5848 41.1066 11.9397C40.8278 12.2946 40.6037 12.763 40.4346 13.3447C40.2701 13.9263 40.1877 14.5031 40.1877 15.075C40.1877 15.5088 40.2632 15.8342 40.414 16.051C40.5695 16.2679 40.7889 16.3764 41.0723 16.3764ZM49.3555 16.3764C49.6526 16.3764 50.0228 16.2901 50.4663 16.1176V17.7813C49.9588 18.0427 49.3509 18.1732 48.6423 18.1732C47.9567 18.1732 47.4516 18.018 47.127 17.7075C46.807 17.3968 46.647 16.9162 46.647 16.2654C46.647 16.019 46.6744 15.743 46.7293 15.4373L47.5179 11.4516H46.4756L46.6744 10.3647L48.0184 9.74351L48.9235 7.99841H50.2537L49.9177 9.7583H51.8583L51.5154 11.4516H49.5818L48.7932 15.4373C48.7658 15.5851 48.752 15.7158 48.752 15.8292C48.752 16.194 48.9532 16.3764 49.3555 16.3764ZM53.7988 7.82094C53.7988 7.39205 53.9062 7.06916 54.1211 6.85226C54.3405 6.63042 54.649 6.5195 55.0467 6.5195C55.3804 6.5195 55.6341 6.59591 55.8078 6.74874C55.9816 6.90155 56.0684 7.12092 56.0684 7.40684C56.0684 7.80122 55.9678 8.12165 55.7667 8.36814C55.5656 8.60968 55.2548 8.73047 54.8342 8.73047C54.1439 8.73047 53.7988 8.42729 53.7988 7.82094ZM53.9084 18.0254H51.8445L53.4696 9.7583H55.5336L53.9084 18.0254ZM61.5471 9.60302C62.5482 9.60302 63.147 10.165 63.3436 11.289H63.3847C63.6956 10.7467 64.0613 10.3301 64.4819 10.0393C64.907 9.74845 65.3596 9.60302 65.8396 9.60302C66.4613 9.60302 66.9343 9.81253 67.2589 10.2315C67.588 10.6506 67.7526 11.2347 67.7526 11.9841C67.7526 12.3587 67.7001 12.8023 67.5949 13.3151L66.6829 18.0254H64.619L65.5652 13.1967C65.6384 12.8615 65.675 12.5682 65.675 12.3168C65.675 11.7105 65.451 11.4073 65.003 11.4073C64.5824 11.4073 64.2007 11.6833 63.8579 12.2355C63.5197 12.7876 63.2499 13.5714 63.0488 14.5869L62.3905 18.0254H60.3266L61.266 13.1967C61.3391 12.8615 61.3757 12.5682 61.3757 12.3168C61.3757 11.7105 61.1517 11.4073 60.7037 11.4073C60.2831 11.4073 59.9015 11.6883 59.5586 12.2503C59.2158 12.8123 58.9461 13.5961 58.7495 14.6018L58.0775 18.0254H56.0136L57.6387 9.7583H59.2158L59.0717 11.289H59.1129C59.7803 10.165 60.5917 9.60302 61.5471 9.60302ZM73.245 11.2076C72.8427 11.2076 72.4633 11.4048 72.1067 11.7992C71.7503 12.1936 71.517 12.6743 71.4074 13.2411H71.7159C72.4245 13.2411 72.9753 13.1228 73.3684 12.8862C73.7661 12.6446 73.965 12.3193 73.965 11.9101C73.965 11.4418 73.725 11.2076 73.245 11.2076ZM72.1205 18.1732C71.1605 18.1732 70.4154 17.8947 69.8851 17.3377C69.3548 16.7807 69.0897 15.9944 69.0897 14.9788C69.0897 13.9584 69.2772 13.0292 69.652 12.1911C70.0314 11.3481 70.5434 10.7073 71.1879 10.2685C71.8325 9.82486 72.5616 9.60302 73.3753 9.60302C74.1844 9.60302 74.8152 9.80514 75.2678 10.2094C75.7204 10.6087 75.9466 11.1583 75.9466 11.8583C75.9466 12.7802 75.5649 13.4926 74.8015 13.9953C74.0382 14.4933 72.9479 14.7422 71.5308 14.7422H71.1811L71.1674 14.8975V15.0454C71.1674 15.494 71.2839 15.849 71.517 16.1102C71.7548 16.3666 72.0931 16.4948 72.5319 16.4948C72.9296 16.4948 73.2908 16.4479 73.6153 16.3542C73.9399 16.2606 74.333 16.0954 74.7947 15.8588V17.5373C74.0085 17.9613 73.117 18.1732 72.1205 18.1732ZM83.0024 18.0254H80.9385L81.8778 13.1967C81.9511 12.8615 81.9876 12.5682 81.9876 12.3168C81.9876 11.7105 81.7407 11.4073 81.247 11.4073C80.8265 11.4073 80.4448 11.6883 80.1019 12.2503C79.7591 12.8123 79.4894 13.5961 79.2928 14.6018L78.6209 18.0254H76.5569L78.182 9.7583H79.7591L79.6151 11.289H79.6562C80.3237 10.165 81.1351 9.60302 82.0904 9.60302C82.7213 9.60302 83.2081 9.81006 83.551 10.2242C83.8984 10.6333 84.0721 11.22 84.0721 11.9841C84.0721 12.3439 84.0195 12.7876 83.9144 13.3151L83.0024 18.0254ZM88.3166 16.3764C88.6137 16.3764 88.9839 16.2901 89.4274 16.1176V17.7813C88.9199 18.0427 88.3119 18.1732 87.6034 18.1732C86.9178 18.1732 86.4126 18.018 86.088 17.7075C85.7681 17.3968 85.6081 16.9162 85.6081 16.2654C85.6081 16.019 85.6355 15.743 85.6903 15.4373L86.4788 11.4516H85.4366L85.6355 10.3647L86.9795 9.74351L87.8845 7.99841H89.2148L88.8788 9.7583H90.8193L90.4765 11.4516H88.5429L87.7542 15.4373C87.7269 15.5851 87.7131 15.7158 87.7131 15.8292C87.7131 16.194 87.9142 16.3764 88.3166 16.3764ZM96.0717 12.8788C96.0717 11.9076 95.7449 11.4221 95.0912 11.4221C94.7483 11.4221 94.4398 11.5724 94.1655 11.8731C93.8958 12.1738 93.6741 12.6151 93.5003 13.1967C93.3312 13.7785 93.2467 14.3774 93.2467 14.9937C93.2467 15.9057 93.5895 16.3616 94.2752 16.3616C94.6181 16.3616 94.9266 16.2112 95.2009 15.9105C95.4752 15.6049 95.6877 15.1834 95.8386 14.6461C95.9941 14.1038 96.0717 13.5147 96.0717 12.8788ZM98.1494 12.8788C98.1494 13.919 97.9871 14.8408 97.6626 15.6443C97.3426 16.4479 96.8786 17.0715 96.2706 17.5151C95.6625 17.9539 94.9403 18.1732 94.1038 18.1732C93.2123 18.1732 92.4993 17.8849 91.9644 17.3081C91.4342 16.7265 91.169 15.9549 91.169 14.9937C91.169 13.9436 91.3313 13.0095 91.6559 12.1911C91.985 11.3678 92.4581 10.7319 93.0752 10.2833C93.6924 9.82978 94.4146 9.60302 95.2421 9.60302C96.138 9.60302 96.8466 9.89387 97.3677 10.4756C97.8888 11.0573 98.1494 11.8583 98.1494 12.8788ZM104.451 15.2968C104.451 16.2236 104.165 16.9359 103.594 17.4338C103.027 17.9268 102.236 18.1732 101.221 18.1732C100.732 18.1732 100.305 18.1363 99.939 18.0624C99.5779 17.9884 99.2396 17.8652 98.9242 17.6926V15.8588C99.6419 16.3024 100.371 16.5243 101.112 16.5243C101.477 16.5243 101.777 16.4454 102.01 16.2877C102.243 16.125 102.36 15.9057 102.36 15.6296C102.36 15.4176 102.275 15.2277 102.106 15.0602C101.937 14.8925 101.637 14.6806 101.208 14.4242C100.654 14.089 100.268 13.7563 100.049 13.4259C99.8293 13.0908 99.7196 12.6964 99.7196 12.2429C99.7196 11.4048 99.971 10.7566 100.474 10.2981C100.981 9.83471 101.704 9.60302 102.641 9.60302C103.56 9.60302 104.389 9.83718 105.13 10.3055L104.451 11.8953C103.811 11.4812 103.221 11.2742 102.682 11.2742C102.421 11.2742 102.211 11.3383 102.051 11.4664C101.891 11.5897 101.811 11.7573 101.811 11.9693C101.811 12.1615 101.884 12.3316 102.03 12.4795C102.177 12.6224 102.451 12.8048 102.853 13.0267C103.415 13.3372 103.822 13.6749 104.074 14.0397C104.325 14.4046 104.451 14.8235 104.451 15.2968ZM111.52 18.0254H109.429L111.547 7.21459H117.129L116.759 9.0928H113.276L112.734 11.8805H115.977L115.594 13.7513H112.35L111.52 18.0254ZM121.298 11.2076C120.896 11.2076 120.517 11.4048 120.16 11.7992C119.804 12.1936 119.57 12.6743 119.461 13.2411H119.77C120.478 13.2411 121.028 13.1228 121.422 12.8862C121.82 12.6446 122.018 12.3193 122.018 11.9101C122.018 11.4418 121.779 11.2076 121.298 11.2076ZM120.174 18.1732C119.214 18.1732 118.469 17.8947 117.939 17.3377C117.408 16.7807 117.144 15.9944 117.144 14.9788C117.144 13.9584 117.33 13.0292 117.705 12.1911C118.084 11.3481 118.597 10.7073 119.241 10.2685C119.886 9.82486 120.615 9.60302 121.429 9.60302C122.238 9.60302 122.869 9.80514 123.321 10.2094C123.774 10.6087 124 11.1583 124 11.8583C124 12.7802 123.618 13.4926 122.855 13.9953C122.092 14.4933 121.001 14.7422 119.584 14.7422H119.235L119.221 14.8975V15.0454C119.221 15.494 119.337 15.849 119.57 16.1102C119.808 16.3666 120.147 16.4948 120.585 16.4948C120.983 16.4948 121.344 16.4479 121.668 16.3542C121.993 16.2606 122.387 16.0954 122.848 15.8588V17.5373C122.062 17.9613 121.171 18.1732 120.174 18.1732ZM127.881 16.3764C128.178 16.3764 128.548 16.2901 128.992 16.1176V17.7813C128.484 18.0427 127.876 18.1732 127.168 18.1732C126.482 18.1732 125.978 18.018 125.653 17.7075C125.333 17.3968 125.172 16.9162 125.172 16.2654C125.172 16.019 125.2 15.743 125.254 15.4373L126.044 11.4516H125.002L125.2 10.3647L126.544 9.74351L127.449 7.99841H128.779L128.443 9.7583H130.384L130.041 11.4516H128.107L127.319 15.4373C127.292 15.5851 127.278 15.7158 127.278 15.8292C127.278 16.194 127.479 16.3764 127.881 16.3764ZM132.901 18.1732C132.229 18.1732 131.698 17.912 131.31 17.3894C130.926 16.862 130.733 16.125 130.733 15.1785C130.733 14.2024 130.898 13.2732 131.228 12.3908C131.557 11.5034 131.988 10.8182 132.524 10.3351C133.058 9.84703 133.645 9.60302 134.285 9.60302C134.728 9.60302 135.11 9.70654 135.43 9.91359C135.755 10.1206 136.006 10.4213 136.185 10.8157H136.24L136.63 9.7583H138.221L136.589 18.0254H135.019L135.116 16.9532H135.087C134.476 17.7665 133.746 18.1732 132.901 18.1732ZM133.709 16.3764C134.025 16.3764 134.329 16.2112 134.621 15.881C134.914 15.5506 135.15 15.1045 135.327 14.5426C135.506 13.9757 135.595 13.3347 135.595 12.62C135.595 12.27 135.506 11.9816 135.327 11.7548C135.154 11.5231 134.923 11.4073 134.635 11.4073C134.324 11.4073 134.027 11.5848 133.743 11.9397C133.464 12.2946 133.241 12.763 133.071 13.3447C132.907 13.9263 132.825 14.5031 132.825 15.075C132.825 15.5088 132.901 15.8342 133.051 16.051C133.207 16.2679 133.426 16.3764 133.709 16.3764ZM140.676 7.82094C140.676 7.39205 140.784 7.06916 140.999 6.85226C141.218 6.63042 141.526 6.5195 141.924 6.5195C142.257 6.5195 142.511 6.59591 142.685 6.74874C142.859 6.90155 142.945 7.12092 142.945 7.40684C142.945 7.80122 142.845 8.12165 142.644 8.36814C142.443 8.60968 142.132 8.73047 141.712 8.73047C141.022 8.73047 140.676 8.42729 140.676 7.82094ZM140.786 18.0254H138.722L140.347 9.7583H142.411L140.786 18.0254ZM148.322 15.2968C148.322 16.2236 148.036 16.9359 147.464 17.4338C146.898 17.9268 146.107 18.1732 145.092 18.1732C144.603 18.1732 144.175 18.1363 143.81 18.0624C143.448 17.9884 143.11 17.8652 142.795 17.6926V15.8588C143.512 16.3024 144.241 16.5243 144.982 16.5243C145.348 16.5243 145.648 16.4454 145.88 16.2877C146.113 16.125 146.231 15.9057 146.231 15.6296C146.231 15.4176 146.145 15.2277 145.977 15.0602C145.807 14.8925 145.508 14.6806 145.078 14.4242C144.525 14.089 144.139 13.7563 143.919 13.4259C143.7 13.0908 143.59 12.6964 143.59 12.2429C143.59 11.4048 143.841 10.7566 144.345 10.2981C144.852 9.83471 145.575 9.60302 146.511 9.60302C147.43 9.60302 148.26 9.83718 149 10.3055L148.322 11.8953C147.682 11.4812 147.092 11.2742 146.553 11.2742C146.292 11.2742 146.081 11.3383 145.922 11.4664C145.761 11.5897 145.682 11.7573 145.682 11.9693C145.682 12.1615 145.755 12.3316 145.901 12.4795C146.047 12.6224 146.322 12.8048 146.724 13.0267C147.286 13.3372 147.693 13.6749 147.945 14.0397C148.196 14.4046 148.322 14.8235 148.322 15.2968Z" fill="#4F4F4F"/>
</svg>
