<svg width="128" height="20" viewBox="0 0 128 20" fill="none" xmlns="http://www.w3.org/2000/svg">
<path fill-rule="evenodd" clip-rule="evenodd" d="M7.8645 18.149C7.8645 17.1304 8.82151 14.0234 10.0047 14.0234C11.1879 14.0234 12.1448 17.1304 12.1448 18.149C12.1448 19.1677 11.1879 19.9996 10.0047 19.9996C8.80407 20.0166 7.8645 19.1847 7.8645 18.149Z" fill="#0064A9"/>
<path fill-rule="evenodd" clip-rule="evenodd" d="M10.0043 0C8.2643 0 6.87231 1.34125 6.87231 3.00507C6.87231 4.65192 8.28173 10.0339 10.0043 10.0339C11.7269 10.0339 13.1362 4.65192 13.1362 3.00507C13.1362 1.34125 11.7269 0 10.0043 0Z" fill="#0064A9"/>
<path fill-rule="evenodd" clip-rule="evenodd" d="M1.44337 10.4072C2.80056 11.1372 7.48113 12.2578 8.22931 10.9334C8.97751 9.62616 5.48016 6.36644 4.12298 5.6364C2.78316 4.92333 1.09537 5.3987 0.34717 6.70597C-0.401022 8.03024 0.103575 9.67715 1.44337 10.4072Z" fill="#0064A9"/>
<path fill-rule="evenodd" clip-rule="evenodd" d="M19.6614 6.82533C18.9132 5.51805 17.2254 5.0257 15.8683 5.75575C14.511 6.46882 11.0311 9.72858 11.7618 11.0358C12.51 12.3431 17.2081 11.2396 18.5479 10.5095C19.9051 9.79643 20.3922 8.13266 19.6614 6.82533Z" fill="#0064A9"/>
<path fill-rule="evenodd" clip-rule="evenodd" d="M3.23501 15.365C3.63522 16.1968 4.6618 16.5533 5.5144 16.146C6.36699 15.7555 8.62899 13.8709 8.22882 13.056C7.82857 12.224 4.90541 12.7504 4.05281 13.1409C3.20021 13.5483 2.83481 14.533 3.23501 15.365Z" fill="#0064A9"/>
<path fill-rule="evenodd" clip-rule="evenodd" d="M15.9377 13.1409C15.085 12.7504 12.1619 12.224 11.7443 13.056C11.3441 13.8879 13.6062 15.7555 14.4588 16.146C15.3113 16.5533 16.3379 16.1968 16.7381 15.365C17.1557 14.533 16.7903 13.5483 15.9377 13.1409Z" fill="#0064A9"/>
<path d="M29.3244 5.59645C30.2227 5.59645 30.9013 5.76989 31.3603 6.11676C31.8192 6.4594 32.0487 6.97336 32.0487 7.65864C32.0487 8.29315 31.8858 8.81769 31.5603 9.23224C31.2347 9.64256 30.7719 9.9154 30.1717 10.0508V10.0888C30.5639 10.1988 30.8758 10.404 31.1072 10.7043C31.3425 11.0004 31.4603 11.3812 31.4603 11.8465C31.4603 12.8152 31.1602 13.5617 30.5601 14.0863C29.9599 14.6108 29.1302 14.8731 28.0712 14.8731H24.9998L26.8179 5.59645H29.3244ZM27.8946 9.27032H28.7713C29.246 9.27032 29.6009 9.16879 29.8363 8.96574C30.0756 8.75846 30.1952 8.46235 30.1952 8.07742C30.1952 7.49789 29.8618 7.20813 29.1949 7.20813H28.3006L27.8946 9.27032ZM27.1121 13.2487H28.1712C28.6301 13.2487 28.9891 13.126 29.248 12.8807C29.5107 12.6354 29.6422 12.2948 29.6422 11.8591C29.6422 11.1738 29.2833 10.8312 28.5654 10.8312H27.5946L27.1121 13.2487ZM34.5493 15C33.9727 15 33.5177 14.7758 33.1842 14.3274C32.8548 13.8748 32.69 13.2424 32.69 12.4303C32.69 11.5926 32.8312 10.7953 33.1137 10.0381C33.3961 9.27666 33.7668 8.68867 34.2257 8.27411C34.6847 7.85533 35.1887 7.64595 35.7379 7.64595C36.1183 7.64595 36.4459 7.73478 36.7205 7.91245C36.999 8.09011 37.2147 8.34815 37.3676 8.68655H37.4147L37.7501 7.77919H39.1152L37.7149 14.8731H36.3674L36.4498 13.9531H36.4263C35.9006 14.651 35.275 15 34.5493 15ZM35.2436 13.4581C35.5142 13.4581 35.7751 13.3164 36.0262 13.033C36.2772 12.7496 36.4792 12.3668 36.6322 11.8846C36.7852 11.3981 36.8617 10.8481 36.8617 10.2348C36.8617 9.93444 36.7852 9.68698 36.6322 9.49239C36.4832 9.29358 36.285 9.19417 36.0379 9.19417C35.7712 9.19417 35.5162 9.34646 35.2731 9.65102C35.0338 9.95559 34.8415 10.3575 34.6964 10.8567C34.5552 11.3558 34.4845 11.8507 34.4845 12.3414C34.4845 12.7136 34.5493 12.9928 34.6787 13.1789C34.8121 13.365 35.0004 13.4581 35.2436 13.4581ZM42.3513 13.4581C42.6063 13.4581 42.924 13.3841 43.3045 13.236V14.6637C42.8691 14.888 42.3474 15 41.7394 15C41.1511 15 40.7176 14.8668 40.4391 14.6003C40.1645 14.3337 40.0272 13.9213 40.0272 13.3629C40.0272 13.1515 40.0507 12.9146 40.0978 12.6523L40.7745 9.23224H39.8801L40.0507 8.2995L41.204 7.7665L41.9806 6.26904H43.1221L42.8338 7.77919H44.4989L44.2047 9.23224H42.5455L41.8688 12.6523C41.8453 12.7792 41.8335 12.8913 41.8335 12.9886C41.8335 13.3017 42.0061 13.4581 42.3513 13.4581ZM46.1641 6.11676C46.1641 5.74873 46.2563 5.47166 46.4407 5.28554C46.6289 5.09518 46.8937 5 47.2349 5C47.5213 5 47.739 5.06557 47.8881 5.19671C48.0371 5.32783 48.1117 5.51608 48.1117 5.76142C48.1117 6.09984 48.0253 6.37479 47.8528 6.5863C47.6802 6.79357 47.4135 6.89722 47.0525 6.89722C46.4602 6.89722 46.1641 6.63706 46.1641 6.11676ZM46.2582 14.8731H44.4872L45.8816 7.77919H47.6527L46.2582 14.8731ZM52.8129 7.64595C53.6719 7.64595 54.1857 8.12818 54.3545 9.09265H54.3897C54.6565 8.62733 54.9703 8.26989 55.3312 8.02031C55.696 7.77074 56.0843 7.64595 56.4962 7.64595C57.0297 7.64595 57.4356 7.82572 57.7141 8.18528C57.9965 8.54484 58.1378 9.04612 58.1378 9.6891C58.1378 10.0106 58.0927 10.3913 58.0025 10.8312L57.2199 14.8731H55.4489L56.2608 10.7297C56.3236 10.442 56.355 10.1904 56.355 9.97463C56.355 9.45432 56.1628 9.19417 55.7784 9.19417C55.4174 9.19417 55.0899 9.43105 54.7957 9.90483C54.5055 10.3786 54.2741 11.0512 54.1015 11.9226L53.5366 14.8731H51.7656L52.5716 10.7297C52.6344 10.442 52.6658 10.1904 52.6658 9.97463C52.6658 9.45432 52.4736 9.19417 52.0892 9.19417C51.7283 9.19417 51.4008 9.43529 51.1066 9.91752C50.8124 10.3998 50.5809 11.0724 50.4122 11.9353L49.8356 14.8731H48.0646L49.4591 7.77919H50.8124L50.6888 9.09265H50.7241C51.2968 8.12818 51.993 7.64595 52.8129 7.64595ZM62.8508 9.02285C62.5055 9.02285 62.18 9.19206 61.874 9.53046C61.5681 9.86887 61.368 10.2813 61.2739 10.7677H61.5387C62.1467 10.7677 62.6193 10.6663 62.9566 10.4632C63.2979 10.2559 63.4686 9.97674 63.4686 9.62564C63.4686 9.22378 63.2626 9.02285 62.8508 9.02285ZM61.8858 15C61.0621 15 60.4227 14.761 59.9677 14.2831C59.5126 13.805 59.2851 13.1303 59.2851 12.2589C59.2851 11.3832 59.446 10.5859 59.7677 9.86676C60.0932 9.14341 60.5325 8.59349 61.0856 8.21701C61.6387 7.8363 62.2644 7.64595 62.9626 7.64595C63.6568 7.64595 64.1982 7.81938 64.5865 8.16625C64.9749 8.50889 65.169 8.98055 65.169 9.58123C65.169 10.3722 64.8415 10.9835 64.1864 11.415C63.5314 11.8422 62.5958 12.0558 61.3798 12.0558H61.0797L61.068 12.1891V12.316C61.068 12.7009 61.168 13.0056 61.368 13.2297C61.572 13.4497 61.8623 13.5597 62.2389 13.5597C62.5801 13.5597 62.89 13.5195 63.1685 13.4391C63.447 13.3587 63.7843 13.217 64.1805 13.014V14.4543C63.5059 14.8182 62.741 15 61.8858 15ZM71.2235 14.8731H69.4525L70.2585 10.7297C70.3214 10.442 70.3527 10.1904 70.3527 9.97463C70.3527 9.45432 70.1409 9.19417 69.7172 9.19417C69.3564 9.19417 69.0288 9.43529 68.7346 9.91752C68.4404 10.3998 68.2091 11.0724 68.0404 11.9353L67.4638 14.8731H65.6926L67.0872 7.77919H68.4404L68.3169 9.09265H68.3522C68.9249 8.12818 69.6212 7.64595 70.4409 7.64595C70.9823 7.64595 71.4 7.82361 71.6942 8.17894C71.9924 8.53004 72.1414 9.03343 72.1414 9.6891C72.1414 9.99789 72.0963 10.3786 72.0061 10.8312L71.2235 14.8731ZM75.7836 13.4581C76.0385 13.4581 76.3562 13.3841 76.7367 13.236V14.6637C76.3013 14.888 75.7796 15 75.1716 15C74.5833 15 74.1498 14.8668 73.8713 14.6003C73.5967 14.3337 73.4594 13.9213 73.4594 13.3629C73.4594 13.1515 73.4829 12.9146 73.53 12.6523L74.2066 9.23224H73.3123L73.4829 8.2995L74.6362 7.7665L75.4128 6.26904H76.5543L76.266 7.77919H77.9312L77.637 9.23224H75.9777L75.301 12.6523C75.2775 12.7792 75.2658 12.8913 75.2658 12.9886C75.2658 13.3017 75.4383 13.4581 75.7836 13.4581ZM82.4382 10.4569C82.4382 9.62353 82.1578 9.20686 81.5968 9.20686C81.3026 9.20686 81.0379 9.33588 80.8025 9.59392C80.5711 9.85195 80.3808 10.2305 80.2317 10.7297C80.0866 11.2289 80.014 11.7428 80.014 12.2716C80.014 13.0542 80.3082 13.4454 80.8966 13.4454C81.1908 13.4454 81.4556 13.3164 81.691 13.0584C81.9263 12.7961 82.1087 12.4344 82.2382 11.9734C82.3716 11.5081 82.4382 11.0026 82.4382 10.4569ZM84.221 10.4569C84.221 11.3494 84.0818 12.1405 83.8033 12.8299C83.5287 13.5195 83.1306 14.0546 82.6089 14.4353C82.0871 14.8118 81.4674 15 80.7495 15C79.9846 15 79.3727 14.7525 78.9138 14.2576C78.4588 13.7585 78.2312 13.0964 78.2312 12.2716C78.2312 11.3706 78.3705 10.569 78.649 9.86676C78.9314 9.16033 79.3374 8.61465 79.8669 8.2297C80.3965 7.84053 81.0163 7.64595 81.7263 7.64595C82.4951 7.64595 83.1031 7.89552 83.5503 8.39468C83.9974 8.89383 84.221 9.58123 84.221 10.4569ZM89.6283 12.5317C89.6283 13.327 89.3832 13.9382 88.8929 14.3655C88.4064 14.7886 87.7278 15 86.857 15C86.4373 15 86.0706 14.9683 85.7567 14.9049C85.4469 14.8414 85.1565 14.7356 84.8859 14.5876V13.014C85.5018 13.3947 86.1275 13.585 86.7628 13.585C87.0767 13.585 87.3336 13.5174 87.5336 13.382C87.7337 13.2424 87.8337 13.0542 87.8337 12.8173C87.8337 12.6354 87.7612 12.4725 87.6161 12.3287C87.4709 12.1848 87.2139 12.003 86.8452 11.783C86.3706 11.4954 86.0391 11.2098 85.8509 10.9264C85.6626 10.6388 85.5684 10.3004 85.5684 9.91118C85.5684 9.19206 85.7842 8.63579 86.2157 8.2424C86.6511 7.84476 87.2708 7.64595 88.075 7.64595C88.8634 7.64595 89.5753 7.84688 90.2108 8.24874L89.6283 9.61295C89.0791 9.25763 88.5731 9.07996 88.1103 9.07996C87.8867 9.07996 87.7063 9.13494 87.569 9.24493C87.4317 9.35069 87.363 9.49451 87.363 9.67641C87.363 9.84138 87.4258 9.98732 87.5513 10.1142C87.6768 10.2369 87.9122 10.3934 88.2574 10.5838C88.7398 10.8502 89.089 11.14 89.3047 11.453C89.5204 11.7661 89.6283 12.1256 89.6283 12.5317ZM95.6945 14.8731H93.8999L95.7178 5.59645H100.508L100.19 7.20813H97.2008L96.736 9.60027H99.5187L99.1899 11.2056H96.4063L95.6945 14.8731ZM104.085 9.02285C103.74 9.02285 103.414 9.19206 103.108 9.53046C102.802 9.86887 102.602 10.2813 102.508 10.7677H102.773C103.381 10.7677 103.853 10.6663 104.191 10.4632C104.532 10.2559 104.703 9.97674 104.703 9.62564C104.703 9.22378 104.497 9.02285 104.085 9.02285ZM103.12 15C102.296 15 101.657 14.761 101.202 14.2831C100.747 13.805 100.52 13.1303 100.52 12.2589C100.52 11.3832 100.68 10.5859 101.002 9.86676C101.327 9.14341 101.767 8.59349 102.32 8.21701C102.873 7.8363 103.499 7.64595 104.197 7.64595C104.891 7.64595 105.433 7.81938 105.821 8.16625C106.209 8.50889 106.404 8.98055 106.404 9.58123C106.404 10.3722 106.076 10.9835 105.421 11.415C104.766 11.8422 103.83 12.0558 102.614 12.0558H102.314L102.302 12.1891V12.316C102.302 12.7009 102.402 13.0056 102.602 13.2297C102.806 13.4497 103.097 13.5597 103.473 13.5597C103.815 13.5597 104.124 13.5195 104.403 13.4391C104.681 13.3587 105.019 13.217 105.415 13.014V14.4543C104.74 14.8182 103.976 15 103.12 15ZM109.734 13.4581C109.989 13.4581 110.306 13.3841 110.687 13.236V14.6637C110.251 14.888 109.73 15 109.122 15C108.533 15 108.1 14.8668 107.821 14.6003C107.547 14.3337 107.409 13.9213 107.409 13.3629C107.409 13.1515 107.433 12.9146 107.48 12.6523L108.157 9.23224H107.263L107.433 8.2995L108.587 7.7665L109.363 6.26904H110.504L110.216 7.77919H111.881L111.587 9.23224H109.928L109.251 12.6523C109.228 12.7792 109.216 12.8913 109.216 12.9886C109.216 13.3017 109.389 13.4581 109.734 13.4581ZM114.041 15C113.464 15 113.009 14.7758 112.676 14.3274C112.346 13.8748 112.181 13.2424 112.181 12.4303C112.181 11.5926 112.322 10.7953 112.605 10.0381C112.888 9.27666 113.258 8.68867 113.717 8.27411C114.176 7.85533 114.68 7.64595 115.229 7.64595C115.609 7.64595 115.937 7.73478 116.212 7.91245C116.491 8.09011 116.706 8.34815 116.859 8.68655H116.906L117.241 7.77919H118.606L117.206 14.8731H115.859L115.941 13.9531H115.917C115.392 14.651 114.767 15 114.041 15ZM114.735 13.4581C115.006 13.4581 115.267 13.3164 115.517 13.033C115.768 12.7496 115.971 12.3668 116.123 11.8846C116.276 11.3981 116.353 10.8481 116.353 10.2348C116.353 9.93444 116.276 9.68698 116.123 9.49239C115.974 9.29358 115.776 9.19417 115.529 9.19417C115.262 9.19417 115.008 9.34646 114.764 9.65102C114.525 9.95559 114.333 10.3575 114.187 10.8567C114.046 11.3558 113.976 11.8507 113.976 12.3414C113.976 12.7136 114.041 12.9928 114.17 13.1789C114.303 13.365 114.492 13.4581 114.735 13.4581ZM120.712 6.11676C120.712 5.74873 120.805 5.47166 120.99 5.28554C121.178 5.09518 121.442 5 121.784 5C122.07 5 122.288 5.06557 122.436 5.19671C122.586 5.32783 122.66 5.51608 122.66 5.76142C122.66 6.09984 122.574 6.37479 122.401 6.5863C122.229 6.79357 121.962 6.89722 121.602 6.89722C121.009 6.89722 120.712 6.63706 120.712 6.11676ZM120.807 14.8731H119.036L120.43 7.77919H122.201L120.807 14.8731ZM127.274 12.5317C127.274 13.327 127.028 13.9382 126.538 14.3655C126.052 14.7886 125.373 15 124.502 15C124.082 15 123.716 14.9683 123.402 14.9049C123.091 14.8414 122.801 14.7356 122.531 14.5876V13.014C123.147 13.3947 123.772 13.585 124.408 13.585C124.722 13.585 124.979 13.5174 125.179 13.382C125.378 13.2424 125.479 13.0542 125.479 12.8173C125.479 12.6354 125.406 12.4725 125.261 12.3287C125.116 12.1848 124.859 12.003 124.49 11.783C124.016 11.4954 123.685 11.2098 123.496 10.9264C123.308 10.6388 123.214 10.3004 123.214 9.91118C123.214 9.19206 123.429 8.63579 123.861 8.2424C124.297 7.84476 124.916 7.64595 125.72 7.64595C126.509 7.64595 127.22 7.84688 127.856 8.24874L127.274 9.61295C126.725 9.25763 126.219 9.07996 125.755 9.07996C125.532 9.07996 125.351 9.13494 125.214 9.24493C125.076 9.35069 125.008 9.49451 125.008 9.67641C125.008 9.84138 125.071 9.98732 125.196 10.1142C125.322 10.2369 125.557 10.3934 125.903 10.5838C126.385 10.8502 126.734 11.14 126.95 11.453C127.165 11.7661 127.274 12.1256 127.274 12.5317Z" fill="#0064A9"/>
</svg>
