<svg width="16" height="13" viewBox="0 0 16 13" fill="none" xmlns="http://www.w3.org/2000/svg">
<g clip-path="url(#clip0)">
<path d="M13 12.5H10.375C10.1688 12.5 10 12.3312 10 12.125V10.875C10 10.6688 10.1688 10.5 10.375 10.5H13C13.5531 10.5 14 10.0531 14 9.5V3.5C14 2.94687 13.5531 2.5 13 2.5H10.375C10.1688 2.5 10 2.33125 10 2.125V0.875C10 0.66875 10.1688 0.5 10.375 0.5H13C14.6562 0.5 16 1.84375 16 3.5V9.5C16 11.1562 14.6562 12.5 13 12.5Z" fill="#0064A9"/>
<path d="M0.468945 7.03258L5.71895 12.2826C6.1877 12.7513 7.0002 12.4232 7.0002 11.7513V8.75133H11.2502C11.6658 8.75133 12.0002 8.41695 12.0002 8.00133V5.00133C12.0002 4.5857 11.6658 4.25133 11.2502 4.25133H7.0002V1.25133C7.0002 0.579454 6.1877 0.251329 5.71895 0.720079L0.468946 5.97008C0.178321 6.26383 0.17832 6.73883 0.468945 7.03258Z" fill="#0064A9"/>
</g>
<defs>
<clipPath id="clip0">
<rect width="16" height="12" fill="white" transform="translate(0 0.5)"/>
</clipPath>
</defs>
</svg>
